<?xml version="1.0" encoding="UTF-8" standalone="no"?>
<svg
   width="59.244pt"
   height="59.244pt"
   viewBox="0 0 59.244 59.244"
   version="1.1"
   id="svg38"
   sodipodi:docname="favicon_only.pdf"
   xmlns:inkscape="http://www.inkscape.org/namespaces/inkscape"
   xmlns:sodipodi="http://sodipodi.sourceforge.net/DTD/sodipodi-0.dtd"
   xmlns="http://www.w3.org/2000/svg"
   xmlns:svg="http://www.w3.org/2000/svg">
  <sodipodi:namedview
     id="namedview40"
     pagecolor="#505050"
     bordercolor="#eeeeee"
     borderopacity="1"
     inkscape:showpageshadow="0"
     inkscape:pageopacity="0"
     inkscape:pagecheckerboard="0"
     inkscape:deskcolor="#505050"
     inkscape:document-units="pt" />
  <defs
     id="defs14">
    <clipPath
       id="clip-0">
      <path
         clip-rule="nonzero"
         d="M 0 0 L 59.242188 0 L 59.242188 59.242188 L 0 59.242188 Z M 0 0 "
         id="path2" />
    </clipPath>
    <clipPath
       id="clip-1">
      <path
         clip-rule="nonzero"
         d="M 1 1 L 58 1 L 58 58 L 1 58 Z M 1 1 "
         id="path5" />
    </clipPath>
    <clipPath
       id="clip-2">
      <path
         clip-rule="nonzero"
         d="M 57.96875 29.621094 C 57.96875 13.964844 45.277344 1.273438 29.621094 1.273438 C 13.964844 1.273438 1.273438 13.964844 1.273438 29.621094 C 1.273438 45.277344 13.964844 57.96875 29.621094 57.96875 C 45.277344 57.96875 57.96875 45.277344 57.96875 29.621094 Z M 57.96875 29.621094 "
         id="path8" />
    </clipPath>
    <clipPath
       id="clip-3">
      <path
         clip-rule="nonzero"
         d="M 0 0 L 59.242188 0 L 59.242188 59.242188 L 0 59.242188 Z M 0 0 "
         id="path11" />
    </clipPath>
  </defs>
  <g
     clip-path="url(#clip-0)"
     id="g18">
    <path
       fill="none"
       stroke-width="2.5512"
       stroke-linecap="butt"
       stroke-linejoin="miter"
       stroke="#ffffff"
       stroke-opacity="1"
       stroke-miterlimit="10"
       d="M 28.34675,9.0625e-4 C 28.34675,15.657156 15.655344,28.348562 -9.0625e-4,28.348562 -15.657156,28.348562 -28.348562,15.657156 -28.348562,9.0625e-4 -28.348562,-15.655344 -15.657156,-28.34675 -9.0625e-4,-28.34675 15.655344,-28.34675 28.34675,-15.655344 28.34675,9.0625e-4 Z m 0,0"
       transform="matrix(1,0,0,-1,29.622,29.622)"
       id="path16" />
  </g>
  <g
     clip-path="url(#clip-1)"
     id="g32">
    <g
       clip-path="url(#clip-2)"
       id="g30">
      <path
         fill="none"
         stroke-width="2.5512"
         stroke-linecap="butt"
         stroke-linejoin="miter"
         stroke="#ffffff"
         stroke-opacity="1"
         stroke-miterlimit="10"
         d="m 106.11238,4.325125 c 0,31.308594 -25.382817,56.691406 -56.695317,56.691406 -31.3125,0 -56.691407,-25.382812 -56.691407,-56.691406 0,-31.3125 25.378907,-56.695313 56.691407,-56.695313 31.3125,0 56.695317,25.382813 56.695317,56.695313 z m 0,0"
         transform="matrix(1,0,0,-1,29.622,29.622)"
         id="path20" />
      <path
         fill="none"
         stroke-width="2.5512"
         stroke-linecap="butt"
         stroke-linejoin="miter"
         stroke="#ffffff"
         stroke-opacity="1"
         stroke-miterlimit="10"
         d="m 23.897531,39.086844 c 0,31.3125 -25.382812,56.691406 -56.695312,56.691406 -31.3125,0 -56.695313,-25.378906 -56.695313,-56.691406 0,-31.3125 25.382813,-56.695313 56.695313,-56.695313 31.3125,0 56.695312,25.382813 56.695312,56.695313 z m 0,0"
         transform="matrix(1,0,0,-1,29.622,29.622)"
         id="path22" />
      <path
         fill="none"
         stroke-width="2.5512"
         stroke-linecap="butt"
         stroke-linejoin="miter"
         stroke="#ffffff"
         stroke-opacity="1"
         stroke-miterlimit="10"
         d="m 78.991281,61.266531 c 0,31.3125 -25.378906,56.691409 -56.691406,56.691409 -31.3125,0 -56.695312,-25.378909 -56.695312,-56.691409 0,-31.3125 25.382812,-56.695312 56.695312,-56.695312 31.3125,0 56.691406,25.382812 56.691406,56.695312 z m 0,0"
         transform="matrix(1,0,0,-1,29.622,29.622)"
         id="path24" />
      <path
         fill="none"
         stroke-width="2.5512"
         stroke-linecap="butt"
         stroke-linejoin="miter"
         stroke="#ffffff"
         stroke-opacity="1"
         stroke-miterlimit="10"
         d="m 32.9405,65.262625 c 0,31.308594 -25.382812,56.691405 -56.695312,56.691405 -31.308594,0 -56.691407,-25.382811 -56.691407,-56.691405 0,-31.3125 25.382813,-56.695313 56.691407,-56.695313 31.3125,0 56.695312,25.382813 56.695312,56.695313 z m 0,0"
         transform="matrix(1,0,0,-1,29.622,29.622)"
         id="path26" />
      <path
         fill="none"
         stroke-width="2.5512"
         stroke-linecap="butt"
         stroke-linejoin="miter"
         stroke="#ffffff"
         stroke-opacity="1"
         stroke-miterlimit="10"
         d="m 33.424875,-63.928781 c 0,31.3125 -25.382812,56.691406 -56.691406,56.691406 -31.3125,0 -56.695313,-25.378906 -56.695313,-56.691406 0,-31.3125 25.382813,-56.695309 56.695313,-56.695309 31.308594,0 56.691406,25.382809 56.691406,56.695309 z m 0,0"
         transform="matrix(1,0,0,-1,29.622,29.622)"
         id="path28" />
    </g>
  </g>
  <g
     clip-path="url(#clip-3)"
     id="g36">
    <path
       fill="none"
       stroke-width="2.5512"
       stroke-linecap="butt"
       stroke-linejoin="miter"
       stroke="#ffffff"
       stroke-opacity="1"
       stroke-miterlimit="10"
       d="M 28.34675,9.0625e-4 C 28.34675,15.657156 15.655344,28.348562 -9.0625e-4,28.348562 -15.657156,28.348562 -28.348562,15.657156 -28.348562,9.0625e-4 -28.348562,-15.655344 -15.657156,-28.34675 -9.0625e-4,-28.34675 15.655344,-28.34675 28.34675,-15.655344 28.34675,9.0625e-4 Z m 0,0"
       transform="matrix(1,0,0,-1,29.622,29.622)"
       id="path34" />
  </g>
</svg>
